<svg width="100" height="30" viewBox="0 0 100 30" fill="none" xmlns="http://www.w3.org/2000/svg">
<path d="M11.7344 16.6327H4.42969L4.39062 12.6093H10.5234C11.6042 12.6093 12.4896 12.4725 13.1797 12.1991C13.8698 11.9126 14.3841 11.5025 14.7227 10.9686C15.0742 10.4218 15.25 9.75769 15.25 8.97644C15.25 8.09102 15.0807 7.37488 14.7422 6.828C14.4167 6.28113 13.9023 5.88399 13.1992 5.6366C12.5091 5.3892 11.6172 5.2655 10.5234 5.2655H6.46094V29.1132H0.601562V0.675659H10.5234C12.1771 0.675659 13.6549 0.831909 14.957 1.14441C16.2721 1.45691 17.3854 1.93217 18.2969 2.57019C19.2083 3.20821 19.9049 4.0155 20.3867 4.99207C20.8685 5.95561 21.1094 7.10144 21.1094 8.42957C21.1094 9.60144 20.8424 10.6822 20.3086 11.6718C19.7878 12.6613 18.9609 13.4686 17.8281 14.0936C16.7083 14.7186 15.2435 15.0637 13.4336 15.1288L11.7344 16.6327ZM11.4805 29.1132H2.82812L5.11328 24.5428H11.4805C12.5091 24.5428 13.349 24.3801 14 24.0546C14.651 23.716 15.1328 23.2603 15.4453 22.6874C15.7578 22.1145 15.9141 21.4569 15.9141 20.7147C15.9141 19.8814 15.7708 19.1587 15.4844 18.5468C15.2109 17.9348 14.7682 17.466 14.1562 17.1405C13.5443 16.802 12.737 16.6327 11.7344 16.6327H6.08984L6.12891 12.6093H13.1602L14.5078 14.1913C16.2396 14.1652 17.6328 14.4712 18.6875 15.1093C19.7552 15.7343 20.5299 16.5481 21.0117 17.5507C21.5065 18.5533 21.7539 19.6275 21.7539 20.7733C21.7539 22.5962 21.3568 24.1327 20.5625 25.3827C19.7682 26.6197 18.6029 27.5507 17.0664 28.1757C15.543 28.8007 13.681 29.1132 11.4805 29.1132ZM35.6031 24.3475V14.9335C35.6031 14.2564 35.4924 13.677 35.2711 13.1952C35.0497 12.7004 34.7047 12.3163 34.2359 12.0428C33.7802 11.7694 33.1878 11.6327 32.4586 11.6327C31.8336 11.6327 31.2932 11.7434 30.8375 11.9647C30.3818 12.1731 30.0302 12.479 29.7828 12.8827C29.5354 13.2733 29.4117 13.7356 29.4117 14.2694H23.7867C23.7867 13.371 23.9951 12.5181 24.4117 11.7108C24.8284 10.9035 25.4339 10.1939 26.2281 9.58191C27.0224 8.95691 27.9664 8.46863 29.0602 8.11707C30.1669 7.7655 31.4039 7.58972 32.7711 7.58972C34.4117 7.58972 35.8701 7.86316 37.1461 8.41003C38.4221 8.95691 39.4247 9.77722 40.1539 10.871C40.8961 11.9647 41.2672 13.3319 41.2672 14.9725V24.0155C41.2672 25.1744 41.3388 26.1249 41.482 26.8671C41.6253 27.5962 41.8336 28.2343 42.107 28.7811V29.1132H36.4234C36.15 28.5402 35.9417 27.8241 35.7984 26.9647C35.6682 26.0923 35.6031 25.2199 35.6031 24.3475ZM36.3453 16.2421L36.3844 19.4257H33.2398C32.4977 19.4257 31.8531 19.5103 31.3062 19.6796C30.7594 19.8488 30.3102 20.0897 29.9586 20.4022C29.607 20.7017 29.3466 21.0533 29.1773 21.4569C29.0211 21.8606 28.943 22.3033 28.943 22.785C28.943 23.2668 29.0536 23.703 29.275 24.0936C29.4964 24.4712 29.8154 24.7707 30.232 24.9921C30.6487 25.2004 31.137 25.3046 31.6969 25.3046C32.5432 25.3046 33.2789 25.1353 33.9039 24.7968C34.5289 24.4582 35.0107 24.0415 35.3492 23.5468C35.7008 23.052 35.8831 22.5832 35.8961 22.1405L37.3805 24.5233C37.1721 25.0572 36.8857 25.6106 36.5211 26.1835C36.1695 26.7564 35.7203 27.2968 35.1734 27.8046C34.6266 28.2994 33.969 28.7095 33.2008 29.035C32.4326 29.3475 31.5211 29.5038 30.4664 29.5038C29.1253 29.5038 27.9078 29.2369 26.8141 28.703C25.7333 28.1561 24.874 27.4074 24.2359 26.4569C23.6109 25.4934 23.2984 24.3996 23.2984 23.1757C23.2984 22.0689 23.5068 21.0858 23.9234 20.2264C24.3401 19.3671 24.9521 18.6444 25.7594 18.0585C26.5797 17.4595 27.6018 17.0103 28.8258 16.7108C30.0497 16.3983 31.469 16.2421 33.0836 16.2421H36.3453ZM60.8195 24.7186V29.1132H44.7648V24.7186H60.8195ZM60.507 11.2225L47.0305 29.1132H43.2609V25.7733L56.6789 7.98035H60.507V11.2225ZM58.5148 7.98035V12.3944H43.5734V7.98035H58.5148ZM74.1609 24.3475V14.9335C74.1609 14.2564 74.0503 13.677 73.8289 13.1952C73.6076 12.7004 73.2625 12.3163 72.7938 12.0428C72.338 11.7694 71.7456 11.6327 71.0164 11.6327C70.3914 11.6327 69.851 11.7434 69.3953 11.9647C68.9396 12.1731 68.588 12.479 68.3406 12.8827C68.0932 13.2733 67.9695 13.7356 67.9695 14.2694H62.3445C62.3445 13.371 62.5529 12.5181 62.9695 11.7108C63.3862 10.9035 63.9917 10.1939 64.7859 9.58191C65.5802 8.95691 66.5242 8.46863 67.618 8.11707C68.7247 7.7655 69.9617 7.58972 71.3289 7.58972C72.9695 7.58972 74.4279 7.86316 75.7039 8.41003C76.9799 8.95691 77.9826 9.77722 78.7117 10.871C79.4539 11.9647 79.825 13.3319 79.825 14.9725V24.0155C79.825 25.1744 79.8966 26.1249 80.0398 26.8671C80.1831 27.5962 80.3914 28.2343 80.6648 28.7811V29.1132H74.9813C74.7078 28.5402 74.4995 27.8241 74.3563 26.9647C74.226 26.0923 74.1609 25.2199 74.1609 24.3475ZM74.9031 16.2421L74.9422 19.4257H71.7977C71.0555 19.4257 70.4109 19.5103 69.8641 19.6796C69.3172 19.8488 68.868 20.0897 68.5164 20.4022C68.1648 20.7017 67.9044 21.0533 67.7352 21.4569C67.5789 21.8606 67.5008 22.3033 67.5008 22.785C67.5008 23.2668 67.6115 23.703 67.8328 24.0936C68.0542 24.4712 68.3732 24.7707 68.7898 24.9921C69.2065 25.2004 69.6948 25.3046 70.2547 25.3046C71.101 25.3046 71.8367 25.1353 72.4617 24.7968C73.0867 24.4582 73.5685 24.0415 73.907 23.5468C74.2586 23.052 74.4409 22.5832 74.4539 22.1405L75.9383 24.5233C75.7299 25.0572 75.4435 25.6106 75.0789 26.1835C74.7273 26.7564 74.2781 27.2968 73.7313 27.8046C73.1844 28.2994 72.5268 28.7095 71.7586 29.035C70.9904 29.3475 70.0789 29.5038 69.0242 29.5038C67.6831 29.5038 66.4656 29.2369 65.3719 28.703C64.2911 28.1561 63.4318 27.4074 62.7938 26.4569C62.1688 25.4934 61.8563 24.3996 61.8563 23.1757C61.8563 22.0689 62.0646 21.0858 62.4813 20.2264C62.8979 19.3671 63.5099 18.6444 64.3172 18.0585C65.1375 17.4595 66.1596 17.0103 67.3836 16.7108C68.6076 16.3983 70.0268 16.2421 71.6414 16.2421H74.9031ZM88.1859 12.5897V29.1132H82.5609V7.98035H87.8539L88.1859 12.5897ZM94.5531 7.84363L94.4555 13.0585C94.182 13.0194 93.85 12.9869 93.4594 12.9608C93.0818 12.9218 92.7367 12.9022 92.4242 12.9022C91.6299 12.9022 90.9398 13.0064 90.3539 13.2147C89.781 13.41 89.2992 13.703 88.9086 14.0936C88.531 14.4843 88.2445 14.9595 88.0492 15.5194C87.8669 16.0793 87.7628 16.7173 87.7367 17.4335L86.6039 17.0819C86.6039 15.7147 86.7406 14.4582 87.0141 13.3124C87.2875 12.1535 87.6846 11.1444 88.2055 10.285C88.7393 9.42566 89.3904 8.7616 90.1586 8.29285C90.9268 7.8241 91.8057 7.58972 92.7953 7.58972C93.1078 7.58972 93.4268 7.61576 93.7523 7.66785C94.0779 7.70691 94.3448 7.7655 94.5531 7.84363ZM92.7969 26.3983C92.7969 25.565 93.0833 24.8684 93.6562 24.3085C94.2422 23.7486 95.0169 23.4686 95.9805 23.4686C96.944 23.4686 97.7122 23.7486 98.2852 24.3085C98.8711 24.8684 99.1641 25.565 99.1641 26.3983C99.1641 27.2316 98.8711 27.9283 98.2852 28.4882C97.7122 29.0481 96.944 29.328 95.9805 29.328C95.0169 29.328 94.2422 29.0481 93.6562 28.4882C93.0833 27.9283 92.7969 27.2316 92.7969 26.3983Z" fill="white"/>
</svg>
